# xmcd
#
# Track frame offsets:
#	150
#	12783
#	27185
#	41540
#	58067
#	68673
#	85677
#	102063
#	124364
#	137870
#	163833
#	177519
#	195415
#	205170
#
# Disc length: 2936 seconds
# Revision: 0
# Processed by: cddbd v1.5.2PL0 Copyright (c) Steve Scherf et al.
# Submitted via: dBpowerAMP V12.0
#
DISCID=bb0b760e
DTITLE=Daddy Mack Blues Band - A Bluesman Looks At Seventy
DYEAR=2015
DGENRE=Blues
TTITLE0=Champagne Fantasy
TTITLE1=She Loves Money
TTITLE2=Muddy Waters
TTITLE3=Fix It When I Can
TTITLE4=You Don't Have to Love Me
TTITLE5=Red, White, Blue and Green
TTITLE6=Gamblin' House Blues
TTITLE7=Hoodoo Blues
TTITLE8=What Kind of Man?
TTITLE9=I Like Fishin'
TTITLE10=Pocketful of Blues
TTITLE11=Lucky for You
TTITLE12=Door Jam
TTITLE13=After All These Years
EXTD=
EXTT0=
EXTT1=
EXTT2=
EXTT3=
EXTT4=
EXTT5=
EXTT6=
EXTT7=
EXTT8=
EXTT9=
EXTT10=
EXTT11=
EXTT12=
EXTT13=
PLAYORDER=
